<svg id="iconcalendar" xmlns="http://www.w3.org/2000/svg" width="27.76" height="22.433" viewBox="0 0 27.76 22.433">
  <path id="Path_10391" data-name="Path 10391" d="M26.21,48.521H24.1a.448.448,0,0,0-.448.448V51.08a.448.448,0,0,0,.448.448h2.111a.448.448,0,0,0,.448-.448V48.969A.448.448,0,0,0,26.21,48.521Zm-.449,2.111H24.545V49.417h1.215Z" transform="translate(-20.094 -41.264)" fill="#2e384d"/>
  <path id="Path_10392" data-name="Path 10392" d="M45,48.521H42.885a.448.448,0,0,0-.448.448V51.08a.448.448,0,0,0,.448.448H45a.448.448,0,0,0,.448-.448V48.969A.448.448,0,0,0,45,48.521Zm-.448,2.111H43.333V49.417h1.216Z" transform="translate(-34.074 -41.264)" fill="#2e384d"/>
  <path id="Path_10393" data-name="Path 10393" d="M63.779,48.521H61.668a.448.448,0,0,0-.448.448V51.08a.448.448,0,0,0,.448.448h2.111a.448.448,0,0,0,.448-.448V48.969A.448.448,0,0,0,63.779,48.521Zm-.448,2.111H62.116V49.417h1.216Z" transform="translate(-48.051 -41.264)" fill="#2e384d"/>
  <path id="Path_10394" data-name="Path 10394" d="M83.007,51.08V48.969a.448.448,0,0,0-.449-.448H80.448a.448.448,0,0,0-.448.448V51.08a.448.448,0,0,0,.448.448h2.111a.448.448,0,0,0,.449-.448Zm-.9-.448H80.9V49.417h1.215Z" transform="translate(-62.026 -41.264)" fill="#2e384d"/>
  <path id="Path_10395" data-name="Path 10395" d="M26.21,62.843H24.1a.448.448,0,0,0-.448.448V65.4a.448.448,0,0,0,.448.448h2.111a.448.448,0,0,0,.448-.448V63.291a.448.448,0,0,0-.447-.448Zm-.448,2.111H24.547V63.739h1.214Z" transform="translate(-20.094 -51.921)" fill="#2e384d"/>
  <path id="Path_10396" data-name="Path 10396" d="M45,62.843H42.885a.448.448,0,0,0-.448.448V65.4a.448.448,0,0,0,.448.448H45a.448.448,0,0,0,.448-.448V63.291A.448.448,0,0,0,45,62.843Zm-.448,2.111H43.333V63.739h1.216Z" transform="translate(-34.074 -51.921)" fill="#2e384d"/>
  <path id="Path_10397" data-name="Path 10397" d="M26.21,77.164H24.1a.448.448,0,0,0-.448.448v2.111a.448.448,0,0,0,.448.448h2.111a.448.448,0,0,0,.448-.448V77.612a.448.448,0,0,0-.447-.448Zm-.449,2.111H24.545V78.06h1.215Z" transform="translate(-20.094 -62.578)" fill="#2e384d"/>
  <path id="Path_10398" data-name="Path 10398" d="M45,77.164H42.885a.448.448,0,0,0-.448.448v2.111a.448.448,0,0,0,.448.448H45a.448.448,0,0,0,.448-.448V77.612A.448.448,0,0,0,45,77.164Zm-.448,2.111H43.333V78.06h1.216Z" transform="translate(-34.074 -62.578)" fill="#2e384d"/>
  <path id="Path_10399" data-name="Path 10399" d="M63.779,62.843H61.668a.448.448,0,0,0-.448.448V65.4a.448.448,0,0,0,.448.448h2.111a.448.448,0,0,0,.448-.448V63.291A.448.448,0,0,0,63.779,62.843Zm-.448,2.111H62.116V63.739h1.216Z" transform="translate(-48.051 -51.921)" fill="#2e384d"/>
  <path id="Path_10400" data-name="Path 10400" d="M63.779,77.164H61.668a.448.448,0,0,0-.448.448v2.111a.448.448,0,0,0,.448.448h2.111a.448.448,0,0,0,.448-.448V77.612A.448.448,0,0,0,63.779,77.164Zm-.448,2.111H62.116V78.06h1.216Z" transform="translate(-48.051 -62.578)" fill="#2e384d"/>
  <path id="Path_10401" data-name="Path 10401" d="M34.288,33.569V22.236a.448.448,0,0,0-.448-.448h-3.1v-.423a1.21,1.21,0,0,0-1.209-1.209H29.48a1.21,1.21,0,0,0-1.209,1.209v.423h-12.5v-.423a1.21,1.21,0,0,0-1.209-1.209h-.054A1.21,1.21,0,0,0,13.3,21.365v.423H10.2a.448.448,0,0,0-.448.448v17.38a.448.448,0,0,0,.448.448H28.777a4.618,4.618,0,1,0,5.512-6.5Zm-4.81-12.517h.054a.314.314,0,0,1,.315.313v1.743a.314.314,0,0,1-.313.314H29.48a.314.314,0,0,1-.313-.314V21.365a.314.314,0,0,1,.312-.314Zm-15.287.314a.314.314,0,0,1,.313-.314h.054a.314.314,0,0,1,.313.314v1.743a.314.314,0,0,1-.313.314H14.5a.314.314,0,0,1-.313-.314Zm-3.545,1.319H13.3v.423a1.21,1.21,0,0,0,1.209,1.209h.054a1.21,1.21,0,0,0,1.209-1.209v-.423h12.5v.423a1.21,1.21,0,0,0,1.209,1.209h.054a1.21,1.21,0,0,0,1.21-1.209v-.423h2.651v2.53H10.645Zm0,16.485V26.11H33.393v7.27a4.6,4.6,0,0,0-4.96,5.789ZM32.89,41.7a3.725,3.725,0,1,1,3.725-3.725A3.725,3.725,0,0,1,32.89,41.7Z" transform="translate(-9.75 -20.156)" fill="#2e384d"/>
  <path id="Path_10402" data-name="Path 10402" d="M95.426,84.245,93.55,86.3l-.8-.629a.448.448,0,0,0-.554.7l1.126.886a.447.447,0,0,0,.608-.051l2.157-2.363a.448.448,0,1,0-.661-.6Z" transform="translate(-70.975 -67.738)" fill="#2e384d"/>
</svg>
